{"asset":{"version":"2.0"},"scene":0,"scenes":[{"nodes":[0]}],"nodes":[{"mesh":0,"name":"Tetrahedron"}],"meshes":[{"primitives":[{"attributes":{"POSITION":0}}]}],"buffers":[{"byteLength":192,"uri":"data:application/octet-stream;base64,"}],"bufferViews":[{"buffer":0,"byteOffset":0,"byteLength":144},{"buffer":0,"byteOffset":144,"byteLength":12},{"buffer":0,"byteOffset":156,"byteLength":36}],"accessors":[{"bufferView":0,"componentType":5126,"count":12,"type":"VEC3","min":[0,0,0],"max":[1,1,1]},{"bufferView":1,"componentType":5126,"count":3,"type":"SCALAR","min":[0],"max":[2]},{"bufferView":2,"componentType":5126,"count":3,"type":"VEC3"}],"animations":[{"name":"Vertical motion","samplers":[{"input":1,"output":2,"interpolation":"LINEAR"}],"channels":[{"sampler":0,"target":{"node":0,"path":"translation"}}]}]}